<?xml version="1.0" encoding="utf-8"?>
<svg version="1.1" xmlns:xlink="http://www.w3.org/1999/xlink" width="35px" height="30px" xmlns="http://www.w3.org/2000/svg">
  <g>
    <path d="M 18.359375 29.6484375  C 18.125 29.8828125  17.8385416666667 30  17.5 30  C 17.1614583333333 30  16.875 29.8828125  16.640625 29.6484375  L 4.453125 17.890625  C 4.32291666666667 17.7864583333333  4.14388020833333 17.6171875  3.916015625 17.3828125  C 3.68815104166667 17.1484375  3.32682291666667 16.7220052083333  2.83203125 16.103515625  C 2.33723958333333 15.4850260416667  1.89453125 14.8502604166667  1.50390625 14.19921875  C 1.11328125 13.5481770833333  0.764973958333333 12.7604166666667  0.458984375 11.8359375  C 0.152994791666667 10.9114583333333  0 10.0130208333333  0 9.140625  C 0 6.27604166666667  0.826822916666667 4.03645833333333  2.48046875 2.421875  C 4.13411458333333 0.807291666666666  6.41927083333333 0  9.3359375 0  C 10.1432291666667 0  10.966796875 0.139973958333331  11.806640625 0.419921875000001  C 12.646484375 0.699869791666664  13.427734375 1.07747395833333  14.150390625 1.552734375  C 14.873046875 2.02799479166667  15.4947916666667 2.47395833333333  16.015625 2.890625  C 16.5364583333333 3.30729166666666  17.03125 3.75  17.5 4.21875  C 17.96875 3.75  18.4635416666667 3.30729166666666  18.984375 2.890625  C 19.5052083333333 2.47395833333333  20.126953125 2.02799479166667  20.849609375 1.552734375  C 21.572265625 1.07747395833333  22.353515625 0.699869791666664  23.193359375 0.419921875000001  C 24.033203125 0.139973958333331  24.8567708333333 0  25.6640625 0  C 28.5807291666667 0  30.8658854166667 0.807291666666666  32.51953125 2.421875  C 34.1731770833333 4.03645833333333  35 6.27604166666667  35 9.140625  C 35 12.0182291666667  33.5091145833333 14.9479166666667  30.52734375 17.9296875  L 18.359375 29.6484375  Z " fill-rule="nonzero" fill="#eb7b77" stroke="none" />
  </g>
</svg>