<?xml version="1.0" encoding="utf-8"?>
<svg version="1.1" xmlns:xlink="http://www.w3.org/1999/xlink" width="35px" height="31px" xmlns="http://www.w3.org/2000/svg">
  <defs>
    <mask fill="white" id="clip1">
      <path d="M 18.359375 30.63671875  C 18.125 30.87890625  17.8385416666667 31  17.5 31  C 17.1614583333333 31  16.875 30.87890625  16.640625 30.63671875  L 4.453125 18.4869791666667  C 4.32291666666667 18.3793402777778  4.14388020833333 18.2044270833333  3.916015625 17.9622395833333  C 3.68815104166667 17.7200520833333  3.32682291666667 17.2794053819444  2.83203125 16.6402994791667  C 2.33723958333333 16.0011935763889  1.89453125 15.3452690972222  1.50390625 14.6725260416667  C 1.11328125 13.9997829861111  0.764973958333333 13.1857638888889  0.458984375 12.23046875  C 0.152994791666667 11.2751736111111  0 10.3467881944444  0 9.4453125  C 0 6.48524305555555  0.826822916666667 4.17100694444444  2.48046875 2.50260416666667  C 4.13411458333333 0.834201388888889  6.41927083333333 0  9.3359375 0  C 10.1432291666667 0  10.966796875 0.144639756944443  11.806640625 0.433919270833334  C 12.646484375 0.72319878472222  13.427734375 1.11338975694444  14.150390625 1.6044921875  C 14.873046875 2.09559461805555  15.4947916666667 2.55642361111111  16.015625 2.98697916666667  C 16.5364583333333 3.41753472222222  17.03125 3.875  17.5 4.359375  C 17.96875 3.875  18.4635416666667 3.41753472222222  18.984375 2.98697916666667  C 19.5052083333333 2.55642361111111  20.126953125 2.09559461805555  20.849609375 1.6044921875  C 21.572265625 1.11338975694444  22.353515625 0.72319878472222  23.193359375 0.433919270833334  C 24.033203125 0.144639756944443  24.8567708333333 0  25.6640625 0  C 28.5807291666667 0  30.8658854166667 0.834201388888889  32.51953125 2.50260416666667  C 34.1731770833333 4.17100694444444  35 6.48524305555555  35 9.4453125  C 35 12.4188368055556  33.5091145833333 15.4461805555556  30.52734375 18.52734375  L 18.359375 30.63671875  Z " fill-rule="evenodd" />
    </mask>
  </defs>
  <g>
    <path d="M 18.359375 30.63671875  C 18.125 30.87890625  17.8385416666667 31  17.5 31  C 17.1614583333333 31  16.875 30.87890625  16.640625 30.63671875  L 4.453125 18.4869791666667  C 4.32291666666667 18.3793402777778  4.14388020833333 18.2044270833333  3.916015625 17.9622395833333  C 3.68815104166667 17.7200520833333  3.32682291666667 17.2794053819444  2.83203125 16.6402994791667  C 2.33723958333333 16.0011935763889  1.89453125 15.3452690972222  1.50390625 14.6725260416667  C 1.11328125 13.9997829861111  0.764973958333333 13.1857638888889  0.458984375 12.23046875  C 0.152994791666667 11.2751736111111  0 10.3467881944444  0 9.4453125  C 0 6.48524305555555  0.826822916666667 4.17100694444444  2.48046875 2.50260416666667  C 4.13411458333333 0.834201388888889  6.41927083333333 0  9.3359375 0  C 10.1432291666667 0  10.966796875 0.144639756944443  11.806640625 0.433919270833334  C 12.646484375 0.72319878472222  13.427734375 1.11338975694444  14.150390625 1.6044921875  C 14.873046875 2.09559461805555  15.4947916666667 2.55642361111111  16.015625 2.98697916666667  C 16.5364583333333 3.41753472222222  17.03125 3.875  17.5 4.359375  C 17.96875 3.875  18.4635416666667 3.41753472222222  18.984375 2.98697916666667  C 19.5052083333333 2.55642361111111  20.126953125 2.09559461805555  20.849609375 1.6044921875  C 21.572265625 1.11338975694444  22.353515625 0.72319878472222  23.193359375 0.433919270833334  C 24.033203125 0.144639756944443  24.8567708333333 0  25.6640625 0  C 28.5807291666667 0  30.8658854166667 0.834201388888889  32.51953125 2.50260416666667  C 34.1731770833333 4.17100694444444  35 6.48524305555555  35 9.4453125  C 35 12.4188368055556  33.5091145833333 15.4461805555556  30.52734375 18.52734375  L 18.359375 30.63671875  Z " fill-rule="nonzero" fill="#ffffff" stroke="none" />
    <path d="M 18.359375 30.63671875  C 18.125 30.87890625  17.8385416666667 31  17.5 31  C 17.1614583333333 31  16.875 30.87890625  16.640625 30.63671875  L 4.453125 18.4869791666667  C 4.32291666666667 18.3793402777778  4.14388020833333 18.2044270833333  3.916015625 17.9622395833333  C 3.68815104166667 17.7200520833333  3.32682291666667 17.2794053819444  2.83203125 16.6402994791667  C 2.33723958333333 16.0011935763889  1.89453125 15.3452690972222  1.50390625 14.6725260416667  C 1.11328125 13.9997829861111  0.764973958333333 13.1857638888889  0.458984375 12.23046875  C 0.152994791666667 11.2751736111111  0 10.3467881944444  0 9.4453125  C 0 6.48524305555555  0.826822916666667 4.17100694444444  2.48046875 2.50260416666667  C 4.13411458333333 0.834201388888889  6.41927083333333 0  9.3359375 0  C 10.1432291666667 0  10.966796875 0.144639756944443  11.806640625 0.433919270833334  C 12.646484375 0.72319878472222  13.427734375 1.11338975694444  14.150390625 1.6044921875  C 14.873046875 2.09559461805555  15.4947916666667 2.55642361111111  16.015625 2.98697916666667  C 16.5364583333333 3.41753472222222  17.03125 3.875  17.5 4.359375  C 17.96875 3.875  18.4635416666667 3.41753472222222  18.984375 2.98697916666667  C 19.5052083333333 2.55642361111111  20.126953125 2.09559461805555  20.849609375 1.6044921875  C 21.572265625 1.11338975694444  22.353515625 0.72319878472222  23.193359375 0.433919270833334  C 24.033203125 0.144639756944443  24.8567708333333 0  25.6640625 0  C 28.5807291666667 0  30.8658854166667 0.834201388888889  32.51953125 2.50260416666667  C 34.1731770833333 4.17100694444444  35 6.48524305555555  35 9.4453125  C 35 12.4188368055556  33.5091145833333 15.4461805555556  30.52734375 18.52734375  L 18.359375 30.63671875  Z " stroke-width="2" stroke="#171616" fill="none" mask="url(#clip1)" />
  </g>
</svg>